<svg width="11" height="14" viewBox="0 0 11 14" fill="none" xmlns="http://www.w3.org/2000/svg">
<path d="M0.954014 7.38419L9.62068 13.3842C9.7207 13.4534 9.83774 13.4939 9.95914 13.5014C10.0805 13.5088 10.2017 13.4829 10.3094 13.4265C10.4171 13.3701 10.5074 13.2852 10.5703 13.1812C10.6333 13.0771 10.6666 12.9578 10.6667 12.8362V0.836191C10.6668 0.714509 10.6335 0.595126 10.5706 0.490979C10.5077 0.386832 10.4174 0.301895 10.3097 0.245372C10.2019 0.188849 10.0808 0.162897 9.9593 0.170327C9.83785 0.177757 9.72074 0.218287 9.62068 0.287525L0.954014 6.28752C0.86572 6.34914 0.793612 6.43118 0.743821 6.52664C0.694031 6.62211 0.66803 6.72819 0.66803 6.83586C0.66803 6.94353 0.694031 7.04961 0.743821 7.14507C0.793612 7.24054 0.86572 7.32257 0.954014 7.38419Z" fill="#847A6A"/>
</svg>
