<svg width="21" height="28" viewBox="0 0 21 28" fill="none" xmlns="http://www.w3.org/2000/svg">
<g clip-path="url(#clip0)">
<path d="M20.3021 0.753906H4.08853C3.24653 0.755015 2.43935 1.0934 1.84416 1.69479C1.24897 2.29618 0.914367 3.11144 0.913818 3.96166V24.5503C0.914368 25.4004 1.24903 26.2154 1.84429 26.8165C2.43954 27.4175 3.24672 27.7554 4.08853 27.756H20.3021C20.3853 27.7609 20.4686 27.7486 20.5469 27.7198C20.6252 27.691 20.6969 27.6464 20.7575 27.5887C20.8181 27.5309 20.8664 27.4613 20.8994 27.384C20.9324 27.3068 20.9494 27.2235 20.9494 27.1394C20.9494 27.0552 20.9324 26.972 20.8994 26.8947C20.8664 26.8174 20.8181 26.7478 20.7575 26.6901C20.6969 26.6323 20.6252 26.5877 20.5469 26.5589C20.4686 26.5302 20.3853 26.5178 20.3021 26.5227H4.08853C3.8268 26.5313 3.56603 26.4867 3.32171 26.3915C3.07739 26.2963 2.85453 26.1525 2.66637 25.9686C2.4782 25.7847 2.32856 25.5645 2.22638 25.321C2.1242 25.0775 2.07154 24.8158 2.07154 24.5514C2.07154 24.287 2.1242 24.0252 2.22638 23.7818C2.32856 23.5383 2.4782 23.3181 2.66637 23.1342C2.85453 22.9503 3.07739 22.8064 3.32171 22.7112C3.56603 22.616 3.8268 22.5714 4.08853 22.58H20.3021C20.4653 22.5801 20.622 22.5153 20.7384 22.3998C20.8547 22.2842 20.9215 22.1271 20.9242 21.9624V1.37159C20.9215 1.20681 20.8547 1.04972 20.7384 0.93417C20.622 0.818624 20.4653 0.753883 20.3021 0.753906ZM19.6925 21.3405H4.70024V1.98927H10.299V11.6649C10.3026 11.7826 10.339 11.8968 10.4039 11.9947C10.4687 12.0925 10.5595 12.17 10.6659 12.2182C10.7722 12.2665 10.8899 12.2835 11.0054 12.2675C11.1209 12.2515 11.2297 12.203 11.3192 12.1276L13.7536 9.90396L16.1798 12.1276C16.269 12.2028 16.3774 12.2513 16.4926 12.2675C16.6077 12.2837 16.7251 12.2669 16.8313 12.2192C16.9376 12.1715 17.0284 12.0946 17.0936 11.9974C17.1587 11.9001 17.1956 11.7864 17.2 11.6691V1.98927H19.6883L19.6925 21.3405ZM15.9786 1.98717V10.2767L14.1539 8.6016C14.0413 8.49548 13.8931 8.43645 13.7391 8.43645C13.5852 8.43645 13.4369 8.49548 13.3244 8.6016L11.5017 10.2767V1.98927L15.9786 1.98717ZM2.13518 22.0398V3.96166C2.13702 3.54792 2.26782 3.14526 2.509 2.81078C2.75018 2.4763 3.0895 2.22697 3.47888 2.09815V21.4075C2.98724 21.5076 2.52651 21.7252 2.13518 22.0419V22.0398Z" fill="#F0E8CE"/>
<path d="M20.3022 23.9326H4.38718C4.23137 23.9418 4.08493 24.0108 3.97783 24.1254C3.87072 24.24 3.81107 24.3917 3.81107 24.5493C3.81107 24.7069 3.87072 24.8585 3.97783 24.9731C4.08493 25.0878 4.23137 25.1567 4.38718 25.1659H20.3022C20.3854 25.1708 20.4687 25.1585 20.547 25.1297C20.6253 25.1009 20.6969 25.0563 20.7575 24.9986C20.8182 24.9408 20.8665 24.8712 20.8995 24.7939C20.9325 24.7167 20.9495 24.6334 20.9495 24.5493C20.9495 24.4651 20.9325 24.3819 20.8995 24.3046C20.8665 24.2273 20.8182 24.1577 20.7575 24.1C20.6969 24.0422 20.6253 23.9976 20.547 23.9688C20.4687 23.94 20.3854 23.9277 20.3022 23.9326Z" fill="#F0E8CE"/>
</g>
<defs>
<clipPath id="clip0">
<rect width="20" height="27" fill="white" transform="translate(0.913879 0.753906)"/>
</clipPath>
</defs>
</svg>
