<svg id="Layer_1" data-name="Layer 1" xmlns="http://www.w3.org/2000/svg" viewBox="0 0 804.8 798.98"><polygon points="79.3 706.36 79.08 706.22 91.24 655.8 79.77 648.06 44.43 700.41 53.17 706.31 79.02 668.01 79.28 668.09 68.05 716.36 74.06 720.41 113.89 692.5 114.08 692.68 88.69 730.29 97.43 736.18 132.77 683.83 121.62 676.31 79.3 706.36"/><polygon points="136.12 755.45 172.75 770.73 175.99 762.97 149.09 751.74 156.79 733.29 179.61 742.81 182.86 735 160.04 725.48 166.91 709.02 193.53 720.13 196.79 712.32 160.44 697.16 136.12 755.45"/><path d="M242,725.06l-20.34-4.63-14,61.59L228,786.65q11.72,2.67,20.71-2.94t11.63-17.15l2.13-9.35q2.61-11.51-3.06-20.49T242,725.06Zm10.19,29.73-2.15,9.43q-1.78,7.86-7.29,11.89t-12.9,2.33l-10.07-2.29L230.08,731l10.06,2.29q7.41,1.68,10.62,7.69T252.21,754.79Z"/><rect x="267.21" y="760.57" width="63.16" height="10.54" transform="translate(-488.79 1001.4) rotate(-85.34)"/><path d="M384.49,776.06l-10.14.58q.38,6.38-2.79,9.94t-9.62,3.94A12.27,12.27,0,0,1,351.26,786q-4.11-4.86-4.56-12.7l-.7-12.09q-.45-7.75,3-13a12,12,0,0,1,9.86-5.68q6.63-.37,10.24,2.78t4,9.48l10.18-.58.07-.27q-.39-9.88-7.11-15.19t-17.84-4.66q-10.87.63-17.2,8.49t-5.66,19.37l.69,12q.66,11.57,7.94,18.6t18.27,6.4q10.83-.63,16.85-6.86t5.31-15.76Z"/><path d="M425,725.4,418.51,792l10.58-2.56,1.25-15.49,21.75-5.27,8.16,13.2,10.58-2.57L434.78,723Zm6,39.29,2.14-26.14.25-.06,13.75,22.28Z"/><polygon points="509.86 755.66 488.2 705.38 478.52 709.55 503.51 767.56 540.36 751.68 537.03 743.96 509.86 755.66"/><path d="M580.91,652.29l21.47,63.35L611,709l-5.24-14.62,17.65-13.77,12.87,8.67,8.58-6.7-56-36.41ZM594,660.73l21.71,14.65L602.6,685.6l-8.81-24.71Z"/><polygon points="670.82 644.76 656.02 631.3 672.67 613.01 666.41 607.32 649.77 625.61 636.59 613.61 656 592.27 649.74 586.58 623.23 615.71 669.95 658.22 696.66 628.86 690.44 623.2 670.82 644.76"/><path d="M728.63,554.26A15.9,15.9,0,0,0,715.5,552q-6.84,1.79-14.54,8.66-5.75,5-9.45,6.42a7.22,7.22,0,0,1-6.76-.58,8.24,8.24,0,0,1-3.93-5.94q-.55-3.78,2.32-8.28a12.8,12.8,0,0,1,7.25-5.84,10.1,10.1,0,0,1,8.47,1.49l5.48-8.55-.17-.21a16.83,16.83,0,0,0-14.61-2.33q-7.93,2.21-13.46,10.83-5.15,8-4.26,15.82a15.53,15.53,0,0,0,7.32,11.9,14.76,14.76,0,0,0,13,1.79Q699,575,706.91,568q5.52-4.92,9.15-5.91a8.27,8.27,0,0,1,7,1.13,7.61,7.61,0,0,1,3.72,6.06q.32,3.88-2.7,8.6a15.73,15.73,0,0,1-7.59,6.5c-3,1.16-6.15.73-9.34-1.32l-5.47,8.55.17.21q7.74,5.22,15.91,2a28.1,28.1,0,0,0,13.36-11.37q5.41-8.45,4.79-16.15A14.92,14.92,0,0,0,728.63,554.26Z"/><polygon points="726.44 467.36 718.64 464.08 699.54 509.51 707.34 512.79 714.79 495.07 765.21 516.27 769.3 506.56 718.87 485.36 726.44 467.36"/><polygon points="734.55 402.59 761.66 408.6 755.54 436.17 728.44 430.16 726.15 440.45 787.82 454.13 790.1 443.83 763.8 438 769.92 410.43 796.22 416.26 798.5 405.97 736.83 392.3 734.55 402.59"/><polygon points="796.38 325.07 795.23 354.19 775.24 353.4 776.23 328.69 767.78 328.36 766.79 353.06 748.98 352.36 750.12 323.53 741.67 323.2 740.11 362.55 803.22 365.06 804.8 325.4 796.38 325.07"/><polygon points="743.27 252.45 734.88 253.51 741.04 302.41 749.43 301.35 747.03 282.28 801.3 275.44 799.98 264.98 745.71 271.82 743.27 252.45"/><rect x="726.65" y="211.84" width="63.16" height="10.54" transform="translate(-30.3 200.73) rotate(-14.79)"/><path d="M749.37,169.47l-11.17,4.66q-7.16,3-13.31,1.5a12,12,0,0,1-8.63-7.42q-2.55-6.12-.77-10.58t7.62-6.9l-3.93-9.41-.28,0q-9.18,3.66-12,11.75t1.52,18.38q4.2,10,13.71,13.41t20.16-1.09l11.09-4.64q10.68-4.46,14.91-13.65t0-19.36q-4.18-10-12.06-13.63t-16.62.22l-.21.18,3.91,9.37q5.89-2.46,10.31-.66t6.91,7.76a12.33,12.33,0,0,1-.69,11.57Q756.61,166.44,749.37,169.47Z"/><path d="M687.93,119.08a15.5,15.5,0,0,0,13.86-1.7,14.75,14.75,0,0,0,7.06-11.11q.85-7.12-2.28-17.23Q704.4,82,705,78.26a8.31,8.31,0,0,1,3.92-5.85,7.63,7.63,0,0,1,7.06-.85q3.67,1.34,6.7,6a15.65,15.65,0,0,1,2.74,9.6q-.3,4.86-5.08,7.94l5.49,8.54.27-.07q8-4.86,8.39-13.66a28.1,28.1,0,0,0-4.77-16.88Q724.29,64.64,717,62a15,15,0,0,0-13.87,1.6,15.94,15.94,0,0,0-7.5,11q-1.2,7,1.83,16.83,2.17,7.32,1.9,11.26A7.19,7.19,0,0,1,696,108.6a8.22,8.22,0,0,1-7,1.09c-2.46-.71-4.64-2.56-6.57-5.55a12.81,12.81,0,0,1-2.29-9A10.07,10.07,0,0,1,685,88l-5.49-8.54-.27.07a16.82,16.82,0,0,0-8.2,12.31q-1.29,8.13,4.25,16.74Q680.48,116.65,687.93,119.08Z"/><path d="M674.82,337.41A337.5,337.5,0,0,0,26.52,206.07,337.5,337.5,0,0,0,648.31,468.75,335.4,335.4,0,0,0,674.82,337.41Zm-53.15-55.36a8.41,8.41,0,0,1,5.44-2.6,4.78,4.78,0,0,1,1.14.14,6.41,6.41,0,0,1,2.18,1.41,6.09,6.09,0,0,1,.88,1.68,8.8,8.8,0,0,1,.26,4.11,14.66,14.66,0,0,1-1.63,4.75,15.85,15.85,0,0,1-1.43,2.16c-.26.34-.54.66-.83,1a11.86,11.86,0,0,1-.94.91,26.17,26.17,0,0,1-4.87,3.45,62.52,62.52,0,0,1-10.45,4.37A137.84,137.84,0,0,1,618,287.73,36.39,36.39,0,0,1,621.67,282.05ZM112.86,112.86A317.57,317.57,0,0,1,653.72,309.13c-1,1.46-2,2.91-3,4.27-3.61,4.89-12.29,16.64-15,20.09a140.44,140.44,0,0,1-22.77,22.75c-1.79,1.42-3.3,2.52-4.4,3.3a15.44,15.44,0,0,1-4,2,7.87,7.87,0,0,1-3.82-.09,5.66,5.66,0,0,1-2.5-2.25c-.09-.4-.17-.83-.23-1.28s-.13-1-.17-1.53a31,31,0,0,1-.05-4c0-1,.13-2,.25-3.08l.43-3.42.21-1.7s.79-3.68,1.11-4.75.69-2.31,1.07-3.57c1.35-4.41,3-9.59,4.7-15l.89-.3c2.39-.8,4.74-1.59,7.22-2.37a85.48,85.48,0,0,0,15.52-6.28,41.24,41.24,0,0,0,7.6-5.37c.58-.52,1.22-1.12,1.8-1.75s1.15-1.27,1.68-1.94a30.11,30.11,0,0,0,2.79-4.21,29.29,29.29,0,0,0,3.33-9.66,23.78,23.78,0,0,0-.83-11,20.67,20.67,0,0,0-6.72-9.69,22.53,22.53,0,0,0-10.38-4.53,28,28,0,0,0-10.43.3A29,29,0,0,0,608.4,268c-.37.24-.74.48-1.1.75s-.71.52-1,.77c-.64.52-1.29,1-1.87,1.58a23.19,23.19,0,0,0-1.74,1.69c-.57.57-1.1,1.16-1.61,1.77a47.47,47.47,0,0,0-5.17,7.57,131.81,131.81,0,0,0-6.9,15.3c-2,4.93-3.9,9.91-5.63,15-.1.29-.18.57-.28.85-1.11.42-2.24.81-3.35,1.23-3.66,1.41-7.29,2.9-10.92,4.4A84.62,84.62,0,0,0,562,304.05a68.37,68.37,0,0,0-24.22-24.58,60.13,60.13,0,0,0-16.43-6.38,59.11,59.11,0,0,0-17.5-1.42,37.54,37.54,0,0,0-10.92,2.56l3.29-4.34c2.78-3.63,5.51-7.29,8.24-11s5.45-7.34,8.14-11,5.34-7.41,8-11.14l3.92-5.62,1.93-2.83,2-2.88a75.55,75.55,0,0,0,7.5-13.67,41.07,41.07,0,0,0,2.43-8.64,31.19,31.19,0,0,0,0-10,26.5,26.5,0,0,0-1.38-5,25.5,25.5,0,0,0-2.39-4.79,27.88,27.88,0,0,0-7-7.44,33.43,33.43,0,0,0-17.4-6.2,34.08,34.08,0,0,0-4.52,0,29.89,29.89,0,0,0-4.5.55,32,32,0,0,0-4.44,1.18c-.76.24-1.37.52-2.05.79s-1.33.54-2,.86a40.65,40.65,0,0,0-7.14,4.36c-1.11.8-2.12,1.69-3.14,2.55s-1.94,1.82-2.83,2.78a72.63,72.63,0,0,0-11.74,17,8.35,8.35,0,0,1-2.59-1c-1.06-3.6,1.49-15.67,1.49-15.67.17-2.17.42-5.35-.73-7.32-2.56-4.38-8-6.74-8.05-6.78s-5.39-2.1-7.59-2.65a39.71,39.71,0,0,0-5.87-1c-4.66,2.11-2.76,9.74-2.76,9.74,2.64,4.81-.4,30.7-2.22,44.25-3.55,16.87-6.72,33.8-9.91,50.73-2.18,11.56-4.38,23.11-6.71,34.64L388,344.85c-4.66,5.09-8.49,7.43-11.43,8.39a5.67,5.67,0,0,1-1,.07,4,4,0,0,1-1.26-.28,4.15,4.15,0,0,1-1-.54,7.72,7.72,0,0,1-2.12-2.44,12.07,12.07,0,0,1-.83-1.74,16.48,16.48,0,0,1-.62-2.17,32,32,0,0,1-.53-5.45c0-1,0-2.08,0-3.19l.17-3.36a108.9,108.9,0,0,1,1.69-13.33c.51-2.68,1.15-5.34,1.86-8,11,.76,19-6.47,23.08-11.42,2.08-2.51,4.09-5.39,5-6.6.71-.93,1.38-2,1.93-2.79.68-.92,1.32-1.86,1.92-2.84a28.46,28.46,0,0,0,3.71-9,20.54,20.54,0,0,0,.43-5.69,18.85,18.85,0,0,0-1.46-6A17.45,17.45,0,0,0,404,263a16.93,16.93,0,0,0-2.87-2.26,13.24,13.24,0,0,0-1.66-.89c-.55-.24-1.12-.47-1.69-.68a16.94,16.94,0,0,0-7.28-.71,20.85,20.85,0,0,0-6.11,1.86,29.09,29.09,0,0,0-4.62,2.88,35.41,35.41,0,0,0-3.67,3.27,39.54,39.54,0,0,0-3.08,3.55c-.25.31-.48.62-.66.87l-.58.81-1.18,1.62a109.39,109.39,0,0,0-18.25,44A108.15,108.15,0,0,0,351,328.13c-4.19,9.3-12.38,27.26-17,37.35-.53,1.17-1,2.23-1.44,3.16-1.18,2.59-2.92,7.45-3.44,8.89l-3.28,9.08c-4.36,12.1-8.77,24.2-13,36.33L309.56,432c-1.06,3-2.13,5.8-3.29,8.43a45,45,0,0,1-3.84,7.15,24.59,24.59,0,0,1-2.24,2.89c-.41.42-.79.87-1.22,1.25-.2.18-.42.41-.61.57l-.57.45a15.35,15.35,0,0,1-5.44,2.62,13.92,13.92,0,0,1-2.85.39c-.47.06-.87,0-1.31,0l-.59-.1a2,2,0,0,1-.57-.11,6.07,6.07,0,0,1-1.82-.73,5,5,0,0,1-.68-.54,5.83,5.83,0,0,1-.65-.66,8.28,8.28,0,0,1-1.05-1.88,13.58,13.58,0,0,1-.73-2.76,36,36,0,0,1-.22-7.56c.08-1.41.21-2.86.38-4.43l.51-4.74,1-9.5c.34-3.16.8-6.31,1.17-9.47s.76-6.32,1.19-9.48l1.36-9.45c.85-6.31,2-12.58,2.93-18.87,3.88-23.58,8.85-47,14.68-70.15,6.69-7.89,16.62-20.75,22.64-28.62l.21-.24c4.37-4.93,7.81-10.51,11.4-16a349.68,349.68,0,0,0,19.34-34.23A340.26,340.26,0,0,0,374.1,190c.55-1.55,1.11-3,1.68-4.84s1-3.54,1.43-5.41a45.25,45.25,0,0,0,.82-5.91,31.51,31.51,0,0,0-.29-6.64,22.36,22.36,0,0,0-2.55-7.28c-.36-.6-.74-1.18-1.13-1.76s-.89-1.1-1.35-1.63a13.84,13.84,0,0,0-1.51-1.46l-.8-.69c-.28-.22-.58-.43-.88-.64a19.31,19.31,0,0,0-7.8-3.15,22.43,22.43,0,0,0-7.68.07,25.41,25.41,0,0,0-6.83,2.27,22.88,22.88,0,0,0-3.09,1.81,24.4,24.4,0,0,0-2.79,2.2,37.76,37.76,0,0,0-7.59,9.83,94.57,94.57,0,0,0-4.45,9.57l-3.69,9c-5,12-9.52,24.18-14,36.39-2.14,6.13-4.29,12.26-6.34,18.43l-3,9.28-1.49,4.64-1.42,4.66c-1.87,6.22-3.79,12.43-5.5,18.7l-2.63,9.38-2.47,9.43c-.55,2.12-1.05,4.26-1.59,6.4-5.9,13.42-27.25,62.1-33.07,74.75-1.19,2.25-2.35,4.52-3.45,6.8-5.73,11.8-11.28,23.68-16.5,35.7q-2,4.49-3.91,9l-3.84,9c-1.28,3-2.5,6.07-3.72,8.67a33.59,33.59,0,0,1-4,6.7,15.64,15.64,0,0,1-2.2,2.3,12.38,12.38,0,0,1-2.45,1.6,7,7,0,0,1-4.29.83,6.76,6.76,0,0,1-3.69-2.3,13.39,13.39,0,0,1-2.85-5.22c-1.27-4.33-1-10-.5-16.52s1-12.91,1.69-19.34c1.23-12.89,2.92-25.73,4.85-38.52s4.3-25.51,6.82-38.2c1.39-6.31,2.64-12.66,4.17-18.94.14-.56.27-1.12.4-1.68,11.23-12.84,28.4-34,39.18-47.48L263,266c.51-.63,3.42-3.57,4.33-4.51,1.23-1.21,2.41-2.45,3.56-3.73s2.16-2.65,3.19-4c2.08-2.72,3.93-5.59,5.81-8.45a174.12,174.12,0,0,0,9.72-18.05c1.53-3.05,2.85-6.2,4.31-9.29.7-1.56,1.33-3.14,2-4.7s1.38-3.13,2-4.73l1.86-4.78c.62-1.59,1.15-3.22,1.72-4.83,1.18-3.21,2.14-6.5,3.16-9.77.12-.42.25-.79.38-1.25l.37-1.37c.24-.93.47-1.85.67-2.8a54.23,54.23,0,0,0,.94-5.9,43.17,43.17,0,0,0,.12-6.47,30.64,30.64,0,0,0-1.37-7.2,23.29,23.29,0,0,0-4.13-7.39,21.42,21.42,0,0,0-15.5-7.56,25.87,25.87,0,0,0-7.75.84,37.33,37.33,0,0,0-12,5.72,46.76,46.76,0,0,0-4.89,4c-1.34,1.33-2.71,2.61-3.95,4a85.65,85.65,0,0,0-7,8.6,104.65,104.65,0,0,0-5.84,9.11,161.4,161.4,0,0,0-9.11,18.81q-2,4.71-3.74,9.39L228.33,219l-1.72,4.68L225,228.4c-1.07,3.15-2.17,6.28-3.21,9.43-2,6.33-4.12,12.63-6,19q-5.81,19.05-10.49,38.42L203,305c-.75,3.23-1.41,6.48-2.12,9.73-1.45,6.47-2.62,13-3.92,19.51l-1.5,8.52c-.33.52-.68,1-1,1.58-1.25,2.05-2.52,4.09-3.7,6.17-.6,1-1.17,2.08-1.74,3.13s-1.16,2.09-1.72,3.14c-2.26,4.21-4.55,8.4-7,12.51l-3.77,6.1-3.91,6a380.53,380.53,0,0,1-35.08,45.12l-2.39,2.65-2.45,2.6c-1.64,1.72-3.25,3.47-4.94,5.15-3.33,3.4-6.68,6.78-10.09,9.93-6.81,6.3-13.88,11.91-21.39,15.83a51,51,0,0,1-11.4,4.52,41,41,0,0,1-11.66,1.34,33.27,33.27,0,0,1-10.94-2,24.49,24.49,0,0,1-8.59-5.4c-4.76-4.56-7.69-11.7-8.37-19.4a45,45,0,0,1-.13-5.81,47.74,47.74,0,0,1,.64-5.92,71,71,0,0,1,3.27-12.17c1.46-4.08,3.28-8.18,5.25-12.33,1-2.07,2-4.16,3.12-6.25l3.3-6.25c1.07-2.11,2.28-4.14,3.4-6.21l1.72-3.09,1.8-3.05c1.21-2,2.37-4.08,3.6-6.09l3.73-6c5.07-8,10.36-15.79,16-23.42s11.5-15,17.67-22.2,12.65-14.1,19.38-20.79q2.52-2.51,5.24-4.8c1.78-1.56,3.69-3,5.39-4.64a28.28,28.28,0,0,0,3-3.48L161,272c2-3.63.9-6.67-1.12-9.06a18.55,18.55,0,0,0-4.08-3.43c-2.35-1.52-7.12-2.71-8.32-2.88a64.4,64.4,0,0,1-13.7-3.72c-2.35-.89-4.53-1.83-6.45-2.72a19.21,19.21,0,0,1-5.12-5.44,35.77,35.77,0,0,1-1.45-4.15,30.07,30.07,0,0,1-1.19-9l0-1.11c0-.37.07-.73.09-1.1,0-.74.16-1.45.25-2.17s.28-1.41.4-2.12.36-1.41.6-2.11a36.13,36.13,0,0,1,3.87-8.09,43.7,43.7,0,0,1,6-7.22,46.8,46.8,0,0,1,7.57-5.91,48.53,48.53,0,0,1,8.68-4.26c1.49-.64,3.09-1,4.64-1.52.79-.24,1.6-.37,2.4-.57a24.45,24.45,0,0,1,2.41-.48l2.43-.37c.81-.12,1.64-.15,2.46-.23,1.63-.2,3.29-.13,4.93-.19a70.28,70.28,0,0,1,9.75,1.11c.4.06.81.11,1.22.14l1.21.17a22.42,22.42,0,0,0,2.48.2c.83.07,1.66.14,2.53.15q.65,0,1.32,0c.44,0,.86.05,1.31.05a16.51,16.51,0,0,0,2.78-.09,16.78,16.78,0,0,0,3.14-.57c1.37-.43,2.77-.85,4.43-1.53a12.74,12.74,0,0,0,2.69-1.24,4.34,4.34,0,0,0,1.89-3l-.1-1.35c-.12-.83-.24-1.69-.43-2.47a17.33,17.33,0,0,0-.67-2.21,18.72,18.72,0,0,0-.92-1.91,17.41,17.41,0,0,0-2.31-3.21,23.47,23.47,0,0,0-2.85-2.34,22.37,22.37,0,0,0-3.08-2c-1.06-.59-2.14-1.17-3.25-1.67a35,35,0,0,0-6.92-2.11c-1.18-.23-2.37-.45-3.56-.59s-2.4-.21-3.6-.29-2.4-.11-3.6-.12-2.4-.05-3.6,0c-2.39.12-4.79.14-7.16.47-1.19.15-2.39.25-3.57.45l-3.54.65c-1.18.19-2.34.51-3.51.8s-2.33.57-3.47.94c-2.29.77-4.59,1.46-6.81,2.45a72.72,72.72,0,0,0-12.83,6.81,70,70,0,0,0-11.17,9.4,62.76,62.76,0,0,0-8.91,11.84,53.35,53.35,0,0,0-5.7,14.1c-.32,1.25-.53,2.53-.78,3.79s-.38,2.59-.47,3.88-.19,2.59-.16,3.87l0,1.93.13,1.92a50.42,50.42,0,0,0,11,27.64,49.3,49.3,0,0,0,5.17,5.45l1.41,1.23,1.49,1.15c1,.78,2,1.44,3.06,2.12a45.47,45.47,0,0,0,7,3.67l-4.34,6.6c-.9.84-1.77,1.71-2.64,2.59-1.76,1.78-3.6,3.47-5.48,5.12q-11.06,10.13-21.34,21.09c-6.83,7.32-13.32,14.95-19.57,22.78L69.32,338c-1.55,2-3,4.05-4.46,6.06l-2.2,3.05-2.13,3.1c-1.41,2.08-2.86,4.12-4.21,6.24-5.53,8.37-10.59,17.06-15.38,25.88-2.32,4.46-4.66,8.85-6.83,13.52a137.46,137.46,0,0,0-5.91,14.39,320.17,320.17,0,0,1-8.35-72.78A315.49,315.49,0,0,1,112.86,112.86ZM556.67,345.1c.07,2.31.09,4.69,0,7a128.25,128.25,0,0,1-1.24,14.27,225.62,225.62,0,0,1-6.36,28.78L547,402.47,546,406.13l-.27.91-.26.83-.53,1.67a126.4,126.4,0,0,1-5.26,13.26,203.71,203.71,0,0,1-14.37,25.52c-2.69,4.12-5.5,8.18-8.45,12.13-1.48,2-3,3.93-4.5,5.85l-1.14,1.44-1.11,1.32c-.71.87-1.5,1.72-2.28,2.58A141.28,141.28,0,0,1,486,490.37a119,119,0,0,1-12.05,7.55c-.51.29-1,.51-1.51.77l-.75.38-.36.18-.29.13a21.45,21.45,0,0,1-2.61,1,50.83,50.83,0,0,1-6.28,1.47A90.14,90.14,0,0,1,448.26,503a84.18,84.18,0,0,1-13.81-.92c-1.09-.17-2.14-.38-3.13-.61s-2-.53-3-.85a38.84,38.84,0,0,1-15.73-10A32.15,32.15,0,0,1,406,480.48a27.61,27.61,0,0,1-2-11.57,38.61,38.61,0,0,1,2.64-12.26A54.32,54.32,0,0,1,413.05,445c5.27-7.49,12.25-14.35,19.67-21.19a471.91,471.91,0,0,1,97.59-70.27q12.81-6.91,26-13.06C556.49,342,556.61,343.55,556.67,345.1ZM393.59,275l.1.15a4.21,4.21,0,0,1,.53,2.6,13.9,13.9,0,0,1-1.37,4.79,31.76,31.76,0,0,1-7.15,9.85,33.1,33.1,0,0,1-5,3.83l-1.36.81-1.09.58c.34-.8.66-1.62,1-2.41a111,111,0,0,1,6.32-11.9l.89-1.44c.29-.45.63-1,.86-1.35A21.51,21.51,0,0,1,389,278.4a23.07,23.07,0,0,1,1.67-1.81,13.5,13.5,0,0,1,1.5-1.19l.79-.47,0,0A.51.51,0,0,1,393.59,275ZM328.7,254c-1.56,2.74-3.19,5.45-4.82,8.16-1,1.6-1.94,3.24-2.86,4.9-2.18,3-5.6,7.5-8.76,11.64q7.33-25.76,16.13-51.07c4.24-12,8.61-24,13.35-35.8l3.55-8.87c1.2-3,2.35-5.66,3.57-8a20.93,20.93,0,0,1,4-5.52,5.62,5.62,0,0,1,.5-.44,3.49,3.49,0,0,1,.47-.37,7.4,7.4,0,0,1,1-.65,8.55,8.55,0,0,1,2.27-.83,5.64,5.64,0,0,1,1.91-.11,2.72,2.72,0,0,1,1.09.36s.07,0,.11,0a.57.57,0,0,0,.11.11c.06.08.2.1.23.2a.85.85,0,0,0,.22.2,1,1,0,0,0,.18.27,5.59,5.59,0,0,1,.67,1.75,14.84,14.84,0,0,1,.21,3,29,29,0,0,1-.4,3.65c-.24,1.29-.54,2.6-.91,3.94s-.88,2.83-1.36,4.32c-1.91,6-4.05,11.91-6.23,17.82s-4.6,11.73-7.19,17.48A359.94,359.94,0,0,1,328.7,254Zm-64.94-18.68c-1.7,2.62-3.23,5.37-5,8-.84,1.33-1.63,2.69-2.42,4.06s-1.58,2.73-2.3,4.16l-1.1,2.13s-3.05,4.78-3.84,5.73c-.6.73-1.23,1.47-1.86,2.23-5.4,6.37-11.9,13.54-17.07,19.13q7.86-27.6,17.74-54.55l3.34-9.1c1.15-3,2.27-6,3.45-8.89a165.82,165.82,0,0,1,7.75-16.67,86.74,86.74,0,0,1,4.59-7.53,64.13,64.13,0,0,1,5.24-6.77c.91-1.09,1.92-2.06,2.88-3.06a27.66,27.66,0,0,1,2.66-2.29,18.43,18.43,0,0,1,5.5-2.91,6.48,6.48,0,0,1,1.95-.33,2.47,2.47,0,0,1,1,.14,2.55,2.55,0,0,1,.75.49,4.07,4.07,0,0,1,.68,1.11,11.65,11.65,0,0,1,.51,2.41,23.59,23.59,0,0,1,0,3.36,33.7,33.7,0,0,1-.54,3.8c-.11.66-.28,1.32-.43,2l-.25,1c-.08.33-.21.74-.32,1.1-.88,3-1.69,6-2.72,9-.5,1.48-.94,3-1.49,4.45l-1.62,4.41c-.52,1.49-1.14,2.92-1.73,4.38s-1.16,2.91-1.82,4.33c-1.32,2.85-2.61,5.71-4.13,8.46C270.3,224.62,267,229.94,263.76,235.32ZM562,562A318,318,0,0,1,56.91,486.61a54.94,54.94,0,0,0,16.14,2.32,61.59,61.59,0,0,0,17.19-2.48,71.28,71.28,0,0,0,15.52-6.66c9.58-5.48,17.57-12.51,24.78-19.68,3.61-3.6,7-7.27,10.33-10.95,1.7-1.82,3.32-3.72,5-5.59l2.46-2.81,2.39-2.87a395.83,395.83,0,0,0,34.78-48.4l3.83-6.38.42-.74c-1.21,10.22-2.26,20.46-3,30.72-.57,6.6-.89,13.22-1.3,19.84-.18,3.28-.36,6.79-.24,10.56A45.12,45.12,0,0,0,187,455.43a30.35,30.35,0,0,0,6.69,11.77,25.38,25.38,0,0,0,5.67,4.62,22.91,22.91,0,0,0,7.33,2.8,22.41,22.41,0,0,0,7.83.07,25.91,25.91,0,0,0,7-2.23,30.17,30.17,0,0,0,5.8-3.67,33,33,0,0,0,4.7-4.68,50.16,50.16,0,0,0,6.27-10c.81-1.64,1.53-3.24,2.21-4.79l2-4.53,3.87-9q1.95-4.5,3.81-9.05c3.21-7.62,6.27-15.29,9.24-23,.38-1,.75-1.95,1.12-2.93.64-1.66,3.41-8,4.35-10.44.31-.81.64-1.71,1-2.69,1.87-5,4.49-11.93,7.4-19.69-.26,1.5-.55,3-.8,4.49-1,6.42-2.17,12.82-3,19.26L268,401.35c-.44,3.22-.81,6.44-1.22,9.67s-.81,6.44-1.15,9.68l-1,9.69-.49,4.85c-.16,1.63-.31,3.39-.4,5.19a49.77,49.77,0,0,0,.59,11.68,30.65,30.65,0,0,0,1.9,6.5,26.4,26.4,0,0,0,3.85,6.38,23.9,23.9,0,0,0,2.76,2.75,22,22,0,0,0,3.2,2.31,24,24,0,0,0,7.12,2.76,15,15,0,0,0,1.81.32l1.8.21a29.38,29.38,0,0,0,3.51,0,30.21,30.21,0,0,0,6.65-1.12,32.57,32.57,0,0,0,11.63-6.1l1.27-1.1c.42-.37.75-.73,1.13-1.1.75-.72,1.4-1.5,2.09-2.27a43,43,0,0,0,3.52-4.83,59.57,59.57,0,0,0,5-10c1.3-3.31,2.36-6.56,3.34-9.69l2.85-9.24c2.78-8.89,5.48-17.81,8.17-26.73.2-.63.39-1.27.58-1.91.52-1.73,3.54-9.75,4.11-11.25,2.89-7.64,8.52-23.79,12.32-34.81.27.73.55,1.45.89,2.18a27.25,27.25,0,0,0,2.71,4.71,24.56,24.56,0,0,0,8.61,7.46,19.8,19.8,0,0,0,5.89,1.94,21.34,21.34,0,0,0,6.07.12,24.62,24.62,0,0,0,10-3.74,38.91,38.91,0,0,0,6.94-5.7c1-1,1.91-2.05,2.79-3.09s1.65-2,2.45-3c1.57-2,3.11-4.1,4.57-6.21s2.83-4.27,4.16-6.45c.45-.77.86-1.56,1.34-2.31a78,78,0,0,1,8.27-10.59l-1.21,5.28c-1,4.24-1.94,8.48-2.65,12.77s-1.32,8.61-1.7,13c-.11,1.09-.2,2.19-.27,3.28l-.12,1.65c-.05.54-.57,10.43-.57,10.43s3.33,5.41,8.2,7.48c1.14.48,5.51,1.56,7.73.83,1.83-.6,3.93-2.24,5.46-6.18a33.11,33.11,0,0,0,1-4.49c2.15-14.11,12.47-81.64,13.8-88.09.75-3.65,2.81-12.45,5-21.09,5.72-14.14,13.62-32.46,18.9-39.7,0,0,16.31-25.42,32.19-32.62,0,0,5.32-3.31,12.73-.36a8.85,8.85,0,0,1,2.1,2.55,8.1,8.1,0,0,1,.57,1.37,7.52,7.52,0,0,1,.34,1.57,11.65,11.65,0,0,1-.19,3.66,24.26,24.26,0,0,1-1.42,4.47,68.61,68.61,0,0,1-5.71,10.28l-3.68,5.69-3.68,5.78q-3.63,5.8-7.2,11.66-1.26,2.06-2.5,4.14a121,121,0,0,1-8.27,11.51c-5.13,6-13,15.13-14,16.26-.43.43-9.53,8.05-3.18,20.55,0,0,6.78,11.23,19.91,7.63,0,0,16.74-7,31.35-5.51,0,0,1.62.21,4,.73a55.24,55.24,0,0,1,6,1.9,32.88,32.88,0,0,1,4.26,2.25c.68.55,1.34,1.12,2,1.71,1,.89,1.92,1.81,2.82,2.77a56.23,56.23,0,0,1,7.91,10.73,66.2,66.2,0,0,1,5,11.12c-59,19.31-118.2,66.23-118.2,66.23-36,29.43-45.37,53.95-47.43,67.7-.27,1.81-.37,3.44-.48,4.86-.41,5.68,1,13,1.32,15.26.19,1.25.64,2.43.95,3.65a45.12,45.12,0,0,0,1.73,5.39c.38,1,.79,1.93,1.24,2.86a49.78,49.78,0,0,0,8.61,12.63,55.42,55.42,0,0,0,14.25,11,54.53,54.53,0,0,0,8.28,3.63c1.44.49,2.87.93,4.39,1.3s2.94.67,4.37.91a101.5,101.5,0,0,0,16.7,1.28A106.85,106.85,0,0,0,465,518.94a62.71,62.71,0,0,0,8.63-2,37.22,37.22,0,0,0,4.56-1.7l.59-.26.49-.24,1-.48c.64-.32,1.3-.63,1.9-1A136.18,136.18,0,0,0,496,504.66a159.1,159.1,0,0,0,24.63-21.09c.94-1,1.89-2.05,2.8-3.15l1.36-1.62,1.24-1.55c1.66-2.06,3.26-4.16,4.85-6.27,3.18-4.22,6.2-8.56,9.11-13,1.47-2.19,2.86-4.45,4.27-6.69s2.72-4.55,4-6.88c2.6-4.65,5.08-9.38,7.3-14.29a143.49,143.49,0,0,0,6-15.22l.61-2,.31-1,.27-.93,1.06-3.7,2.09-7.47a242,242,0,0,0,6.68-31,138.55,138.55,0,0,0,1.32-16.24c.06-2.75,0-5.47-.12-8.26s-.42-5.6-.82-8.38c-.13-.88-.29-1.76-.44-2.63,1.93-.82,3.89-1.59,5.83-2.38a116,116,0,0,0-1.68,12.86l-.12,2c0,.65-.07,1.46-.09,2.2,0,1.5,0,3,0,4.57a48.78,48.78,0,0,0,1.34,9.69,30,30,0,0,0,4.71,10.43,22.76,22.76,0,0,0,4.6,4.77,21.89,21.89,0,0,0,5.91,3.24,21.56,21.56,0,0,0,6.56,1.27,23.24,23.24,0,0,0,6.23-.64,29.65,29.65,0,0,0,9.67-4.41,48.37,48.37,0,0,0,7.06-5.92c1-1,2-2.13,2.93-3.21l2.56-3.08a166.54,166.54,0,0,0,11.87-16.8c5.6-7.91,10.93-16,14.81-22,.13,3.83.22,7.67.22,11.52A315.47,315.47,0,0,1,562,562Z"/></svg>